<svg width="352" height="40" viewBox="0 0 352 40" fill="none" xmlns="http://www.w3.org/2000/svg">
<g clip-path="url(#clip0_60_233)">
<path fill-rule="evenodd" clip-rule="evenodd" d="M338.178 18.8217C338.491 19.1342 338.666 19.5581 338.666 20C338.666 20.4419 338.491 20.8658 338.178 21.1783L328.75 30.6067C328.596 30.7658 328.412 30.8928 328.209 30.9802C328.006 31.0675 327.787 31.1135 327.566 31.1154C327.344 31.1173 327.125 31.0752 326.92 30.9914C326.715 30.9076 326.529 30.7838 326.373 30.6273C326.216 30.4708 326.092 30.2847 326.009 30.0799C325.925 29.8751 325.883 29.6556 325.885 29.4343C325.887 29.213 325.932 28.9943 326.02 28.791C326.107 28.5876 326.234 28.4037 326.393 28.25L334.643 20L326.393 11.75C326.09 11.4357 325.922 11.0147 325.926 10.5777C325.929 10.1407 326.105 9.72264 326.414 9.41363C326.723 9.10462 327.141 8.92934 327.578 8.92554C328.015 8.92174 328.436 9.08973 328.75 9.39333L338.178 18.8217Z" fill="#FEBA4C"/>
</g>
<path d="M26.37 6.8V10.07H16.89C17.91 13.31 22.17 16.01 27.99 17.39L26.19 20.24C23.07 19.79 17.19 17.3 14.52 13.76C11.97 17.24 6.03 19.7 2.91 20.24L1.11 17.39C7.02 16.1 11.19 13.34 12.18 10.07H2.7V6.8H26.37ZM16.53 33.95H12.57V26.6H1.2V23.33H27.87V26.6H16.53V33.95ZM56.2418 6.5V25.37H52.2818V6.5H56.2418ZM32.6918 33.35V24.41H36.8018V30.08H56.6918V33.35H32.6918ZM30.2318 13.85C30.2318 8.81 34.1018 5.57 38.9018 5.57C43.7018 5.57 47.5718 8.81 47.5718 13.85C47.5718 18.89 43.7018 22.13 38.9018 22.13C34.1018 22.13 30.2318 18.89 30.2318 13.85ZM34.2218 13.85C34.2218 17.03 36.1718 18.92 38.9018 18.92C41.6318 18.92 43.5818 16.94 43.5818 13.85C43.5818 10.7 41.6318 8.78 38.9018 8.78C36.1718 8.78 34.2218 10.7 34.2218 13.85ZM85.2659 11.03C85.2659 15.26 79.8059 16.37 73.0559 16.37C66.3359 16.37 60.8159 15.2 60.8159 11.03C60.8159 6.83 66.3359 5.57 73.0559 5.57C79.8059 5.57 85.2659 6.74 85.2659 11.03ZM81.2759 11C81.2759 9.32 78.3059 8.69 73.0559 8.69C67.7759 8.69 64.8059 9.32 64.8059 11C64.8059 12.71 67.7759 13.25 73.0559 13.25C78.3059 13.25 81.2759 12.68 81.2759 11ZM61.2659 33.65V26.48H80.8559V25.4H61.2659V22.37H84.8159V29.51H65.2259V30.62H85.2659V33.65H61.2659ZM86.3759 17.57V20.84H59.7059V17.57H86.3759ZM122.842 23.21V26.39H114.022C115.612 28.88 119.752 30.32 124.282 31.07L122.572 33.92C119.962 33.71 113.902 32.24 111.292 28.76C108.652 32.09 102.802 33.68 100.192 33.95L98.4818 31.13C102.982 30.38 107.062 28.97 108.592 26.39H99.7118V23.21H122.842ZM115.492 18.77L113.272 21.29C111.442 20.39 107.962 17.72 106.432 15.29C104.932 18.23 101.422 20.93 99.4418 21.89L96.9218 19.58C100.732 17.63 103.342 14.75 104.062 11.54H98.0018V8.27H104.272V5.54H108.232V8.27H115.132V11.54H108.502C109.402 14.27 112.252 17.06 115.492 18.77ZM122.842 6.5V12.23H125.932V15.62H122.842V21.41H118.882V6.5H122.842ZM129.419 10.22V6.95H151.739V25.1H147.779V10.22H129.419ZM153.869 29.51V32.78H127.799V29.51H136.469V18.5H140.429V29.51H153.869ZM182.541 6.5V21.41H178.581V6.5H182.541ZM156.651 13.28C156.651 8.63 160.461 5.57 165.201 5.57C169.941 5.57 173.751 8.63 173.751 13.28C173.751 17.93 169.941 20.99 165.201 20.99C160.461 20.99 156.651 17.93 156.651 13.28ZM160.611 13.28C160.611 16.13 162.501 17.87 165.201 17.87C167.901 17.87 169.791 16.04 169.791 13.28C169.791 10.46 167.901 8.69 165.201 8.69C162.501 8.69 160.611 10.46 160.611 13.28ZM175.191 23.24H179.151C179.151 26.57 181.611 29.69 184.971 31.67L182.421 33.86C180.831 33.08 178.491 30.77 177.201 28.61C175.671 31.1 173.151 32.99 171.021 33.74C168.951 33.08 166.401 31.04 164.811 28.49C163.701 30.62 161.211 32.99 159.591 33.92L156.981 31.67C160.431 29.6 162.921 26.33 162.921 23.24H166.881V23.33C166.881 26.27 168.681 29.03 171.021 30.29C173.361 29.06 175.191 26.33 175.191 23.33V23.24ZM187.865 33.35V25.31H191.975V30.08H211.565V33.35H187.865ZM212.675 20.15V23.42H186.005V20.15H212.675ZM187.565 17.27V6.65H191.675V14H211.265V17.27H187.565ZM225.651 16.34V6.65H249.021V9.86H229.611V13.13H249.351V16.34H239.421V19.07H250.761V22.34H224.091V19.07H235.461V16.34H225.651ZM249.651 29.15C249.651 33.59 244.311 34.28 237.441 34.28C230.601 34.28 225.201 33.44 225.201 29.15C225.201 24.8 230.601 23.93 237.441 23.93C244.311 23.93 249.651 24.65 249.651 29.15ZM245.391 29.12C245.391 27.35 243.231 27.11 237.441 27.11C231.621 27.11 229.461 27.35 229.461 29.12C229.461 30.89 231.621 31.1 237.441 31.1C243.231 31.1 245.391 30.86 245.391 29.12ZM279.852 17.33V20.6H268.512V22.37H278.292V29.51H258.702V30.62H278.742V33.65H254.742V26.48H274.332V25.4H254.742V22.37H264.552V20.6H253.182V17.33H279.852ZM254.592 15.8V6.65H278.442V15.8H254.592ZM258.552 9.77V12.68H274.482V9.77H258.552ZM283.834 15.98V6.65H307.204V9.86H287.794V12.77H307.534V15.98H283.834ZM283.834 33.65V26.48H303.424V25.4H283.834V22.37H307.384V29.51H287.794V30.62H307.834V33.65H283.834ZM308.944 17.57V20.84H282.274V17.57H308.944Z" fill="#FFBB4D"/>
<defs>
<clipPath id="clip0_60_233">
<rect width="40" height="40" fill="white" transform="translate(312)"/>
</clipPath>
</defs>
</svg>
