<svg width="30" height="30" viewBox="0 0 30 30" fill="none" xmlns="http://www.w3.org/2000/svg">
<path fill-rule="evenodd" clip-rule="evenodd" d="M13.3441 3.00942e-08C11.216 0.000181318 9.11892 0.50924 7.22766 1.48471C5.3364 2.46017 3.70584 3.87376 2.47202 5.60753C1.23821 7.3413 0.436917 9.34497 0.134999 11.4514C-0.166919 13.5578 0.0392919 15.7059 0.736428 17.7164C1.43356 19.7269 2.60141 21.5416 4.14253 23.009C5.68365 24.4764 7.55336 25.554 9.59566 26.1518C11.638 26.7497 13.7936 26.8505 15.8828 26.4459C17.972 26.0413 19.9342 25.1429 21.6055 23.8258L27.3393 29.5593C27.6354 29.8453 28.032 30.0035 28.4436 29.9999C28.8553 29.9964 29.2491 29.8313 29.5402 29.5402C29.8312 29.2491 29.9964 28.8553 29.9999 28.4437C30.0035 28.032 29.8453 27.6355 29.5593 27.3394L23.8256 21.6059C25.3767 19.6381 26.3426 17.2734 26.6125 14.7824C26.8824 12.2913 26.4456 9.77463 25.352 7.52028C24.2583 5.26592 22.5521 3.36499 20.4285 2.03504C18.3049 0.705081 15.8498 -0.000168211 13.3441 3.00942e-08ZM3.13891 13.3447C3.13891 10.6382 4.2141 8.0426 6.12793 6.12884C8.04177 4.21507 10.6375 3.13993 13.3441 3.13993C16.0506 3.13993 18.6464 4.21507 20.5602 6.12884C22.474 8.0426 23.5492 10.6382 23.5492 13.3447C23.5492 16.0512 22.474 18.6468 20.5602 20.5606C18.6464 22.4743 16.0506 23.5495 13.3441 23.5495C10.6375 23.5495 8.04177 22.4743 6.12793 20.5606C4.2141 18.6468 3.13891 16.0512 3.13891 13.3447Z" fill="#FFBB4D"/>
</svg>
