<svg width="88" height="44" viewBox="0 0 88 44" fill="none" xmlns="http://www.w3.org/2000/svg">
<rect width="88" height="44" rx="22" fill="#1B1B1D"/>
<g clip-path="url(#clip0_44_448)">
<path d="M36.2673 15.5951C34.3559 13.1767 32.521 10.7583 30.5769 8.42823C29.8452 7.55584 28.9277 6.81596 27.9994 6.15338C26.8744 5.35829 25.9897 5.44664 25.1815 6.56197C24.1658 7.97547 23.1609 9.44418 22.4729 11.0344C20.8236 14.8442 19.371 18.7423 17.7655 22.6074C18.4973 19.8577 19.0761 17.0528 20.0045 14.3804C20.9547 11.6528 22.167 9.00246 23.4449 6.40737C24.1876 4.91657 25.4327 3.75706 27.3004 4.14357C28.1523 4.32025 29.0151 4.75093 29.7141 5.26995C32.3791 7.24664 34.3996 9.85277 36.3219 12.5362C36.7697 13.1657 37.1301 13.3976 37.9929 13.254C42.1323 12.5914 46.2936 12.5914 50.4439 13.2871C50.7716 13.3423 51.2631 13.0552 51.5034 12.7681C53.1854 10.8135 54.769 8.74848 56.5165 6.84909C57.3466 5.94357 58.406 5.1816 59.4764 4.5632C61.1256 3.60246 62.6984 3.85645 63.8342 5.41351C64.9155 6.89326 65.8111 8.5497 66.5538 10.2282C68.2467 14.016 69.2734 18.0135 70.0488 22.0773C70.0707 22.1767 70.027 22.2761 70.0051 22.4859C69.1642 20.1006 68.487 17.7485 67.5259 15.5178C66.3463 12.7902 65.0903 10.0847 63.594 7.53375C62.2069 5.14848 61.071 5.08222 59.0067 6.91535C56.3746 9.25645 54.3322 12.1055 52.3771 15.0209C52.1259 15.3963 51.9621 15.7055 51.3286 15.573C46.2608 14.5019 41.1931 14.6233 36.2454 15.6061L36.2673 15.5951Z" fill="white"/>
<path d="M43.5413 39.9117C43.5413 38.7963 43.5085 37.7141 43.5522 36.643C43.585 36.0025 43.3993 35.5939 42.8314 35.2847C42.3399 35.0196 41.8593 34.7325 41.4552 34.3571C41.2368 34.1583 41.0402 33.7387 41.1057 33.4847C41.1712 33.2307 41.5535 32.8773 41.8047 32.8663C43.2901 32.8111 44.7864 32.8111 46.2718 32.8663C46.523 32.8663 46.8725 33.2196 46.9708 33.4957C47.0472 33.7055 46.807 34.0368 46.7087 34.3129C46.7087 34.346 46.665 34.3681 46.6322 34.3792C44.142 35.1301 44.5133 37.173 44.5789 39.0614C44.6007 39.735 44.5133 40.1988 43.5413 39.9117Z" fill="white"/>
<path d="M36.1362 31.8061C35.8523 31.7509 35.5464 31.7288 35.2734 31.6294C32.9798 30.8343 30.7299 30.8454 28.4909 31.8393C27.628 32.2258 27.3768 32.038 26.9509 30.7129C26.7106 29.973 27.2895 29.9067 27.7482 29.7853C30.4896 29.0785 33.1108 29.3656 35.5792 30.7902C35.8632 30.9558 36.0816 31.254 36.3328 31.4859C36.2673 31.5963 36.2018 31.6957 36.1362 31.8061Z" fill="white"/>
<path d="M58.0237 29.4429C58.5698 29.5423 59.531 29.6527 60.4593 29.9288C60.7324 30.0061 60.8635 30.5583 61.0491 30.9006C60.5249 31.1656 60.9399 32.5902 59.6839 31.9828C57.4121 30.8896 55.0748 30.8454 52.7157 31.7399C52.4754 31.8282 52.1587 31.7288 51.8747 31.7178C52.0385 31.4527 52.1368 31.0994 52.3662 30.9558C53.9608 29.9619 55.7301 29.5092 58.0347 29.454L58.0237 29.4429Z" fill="white"/>
<path d="M68.1047 28.692C71.2939 27.6871 74.4831 26.6933 77.6724 25.6884L77.8143 26.1411C74.6251 27.135 71.425 28.1178 68.2358 29.1117C68.1921 28.9681 68.1484 28.8246 68.1047 28.692Z" fill="white"/>
<path d="M10.0218 30.5362C12.9489 30.8123 15.876 31.0883 18.8031 31.3534C18.7922 31.508 18.7703 31.6515 18.7594 31.8061C15.8432 31.5411 12.9162 31.265 10 31C10 30.8454 10.0109 30.6908 10.0218 30.5362Z" fill="white"/>
<path d="M19.9717 34.3902C17.274 35.3178 14.5872 36.2454 11.8895 37.184C11.8458 37.0405 11.7912 36.8969 11.7475 36.7534C14.4452 35.8147 17.1539 34.8871 19.8516 33.9485C19.8953 34.092 19.939 34.2466 19.9826 34.3902H19.9717Z" fill="white"/>
<path d="M68.2904 34.1472C71.01 35.0859 73.7186 36.0245 76.4382 36.9522C76.3945 37.0957 76.3399 37.2282 76.2962 37.3718C73.5766 36.4442 70.868 35.5166 68.1484 34.5779C68.1921 34.4344 68.2467 34.2908 68.2904 34.1362V34.1472Z" fill="white"/>
<path d="M78 31.1877C75.1822 31.4417 72.3752 31.6957 69.5574 31.9387C69.5464 31.7841 69.5355 31.6405 69.5137 31.4859C72.3315 31.2319 75.1385 30.9779 77.9563 30.7239C77.9673 30.8785 77.9782 31.0331 78 31.1767V31.1877Z" fill="white"/>
<path d="M19.7096 28.0037C16.5204 26.9988 13.3312 26.0049 10.142 25L9.99999 25.4528C13.1892 26.4466 16.3893 27.4294 19.5785 28.4233C19.6222 28.2798 19.6659 28.1362 19.7096 28.0037Z" fill="white"/>
</g>
<defs>
<clipPath id="clip0_44_448">
<rect width="68" height="36" fill="white" transform="translate(10 4)"/>
</clipPath>
</defs>
</svg>
