<svg width="254" height="40" viewBox="0 0 254 40" fill="none" xmlns="http://www.w3.org/2000/svg">
<g clip-path="url(#clip0_60_275)">
<path fill-rule="evenodd" clip-rule="evenodd" d="M240.178 18.8217C240.491 19.1343 240.666 19.5581 240.666 20.0001C240.666 20.442 240.491 20.8658 240.178 21.1784L230.75 30.6067C230.596 30.7659 230.412 30.8929 230.209 30.9802C230.006 31.0676 229.787 31.1136 229.566 31.1155C229.344 31.1174 229.125 31.0752 228.92 30.9914C228.715 30.9076 228.529 30.7839 228.373 30.6274C228.216 30.4709 228.092 30.2848 228.009 30.08C227.925 29.8752 227.883 29.6557 227.885 29.4344C227.887 29.2131 227.932 28.9944 228.02 28.791C228.107 28.5877 228.234 28.4038 228.393 28.2501L236.643 20.0001L228.393 11.7501C228.09 11.4357 227.922 11.0147 227.926 10.5777C227.929 10.1407 228.105 9.72271 228.414 9.41369C228.723 9.10468 229.141 8.9294 229.578 8.9256C230.015 8.9218 230.436 9.08979 230.75 9.39339L240.178 18.8217Z" fill="#FEBA4C"/>
</g>
<path d="M26.76 29.75C26.76 33.8 21.42 34.28 14.55 34.28C7.71 34.28 2.31 33.68 2.31 29.75C2.31 25.76 7.71 25.13 14.55 25.13C21.42 25.13 26.76 25.64 26.76 29.75ZM26.61 15.41C26.61 19.25 22.29 19.58 14.55 19.58C6.84 19.58 2.46 19.13 2.46 15.41C2.46 11.63 6.84 11.18 14.55 11.18C22.29 11.18 26.61 11.51 26.61 15.41ZM27.18 7.19V10.25H1.89V7.19H12.57V5.3H16.53V7.19H27.18ZM27.87 20.84V23.9H1.2V20.84H27.87ZM22.5 29.72C22.5 28.28 20.34 28.16 14.55 28.16C8.73 28.16 6.57 28.28 6.57 29.72C6.57 31.16 8.73 31.25 14.55 31.25C20.34 31.25 22.5 31.13 22.5 29.72ZM22.23 15.38C22.23 14.33 21.42 14.03 14.55 14.03C7.62 14.03 6.84 14.33 6.84 15.38C6.84 16.43 7.62 16.73 14.55 16.73C21.42 16.73 22.23 16.4 22.23 15.38ZM31.3118 32.63V7.1H47.7518V32.63H31.3118ZM35.2718 10.37V29.36H43.7918V10.37H35.2718ZM56.0918 6.5V33.65H52.1318V6.5H56.0918ZM61.3259 24.08V13.67H80.5559V10.22H61.3259V6.95H84.5159V16.94H65.2859V20.81H85.0259V24.08H61.3259ZM86.0759 29.51V32.78H60.0059V29.51H71.0459V25.31H75.0659V29.51H86.0759ZM114.358 11.78C114.358 16.55 108.898 17.93 102.148 17.93C95.4277 17.93 89.9077 16.43 89.9077 11.78C89.9077 7.1 95.4277 5.57 102.148 5.57C108.898 5.57 114.358 6.98 114.358 11.78ZM104.428 28.13H100.468V23H88.7977V19.73H115.468V23H104.428V28.13ZM90.6577 33.35V25.52H94.7677V30.08H114.358V33.35H90.6577ZM110.398 11.75C110.398 9.59 107.398 8.81 102.148 8.81C96.8677 8.81 93.8677 9.59 93.8677 11.75C93.8677 13.94 96.8677 14.69 102.148 14.69C107.398 14.69 110.398 13.91 110.398 11.75ZM136.154 6.17C143.024 6.17 144.794 13.04 144.794 19.4C144.794 25.7 143.024 32.72 136.154 32.72C129.284 32.72 127.484 25.82 127.484 19.4C127.484 13.04 129.284 6.17 136.154 6.17ZM136.124 9.41C132.194 9.41 131.444 15.08 131.444 19.4C131.444 23.78 132.194 29.48 136.124 29.48C140.054 29.48 140.834 23.78 140.834 19.4C140.834 15.08 140.024 9.41 136.124 9.41ZM152.684 6.5V33.65H148.724V6.5H152.684ZM165.178 6.17C172.048 6.17 173.728 13.04 173.728 19.4C173.728 25.7 172.048 32.72 165.178 32.72C158.308 32.72 156.598 25.82 156.598 19.4C156.598 13.04 158.308 6.17 165.178 6.17ZM165.148 9.41C161.218 9.41 160.558 15.08 160.558 19.4C160.558 23.78 161.218 29.48 165.148 29.48C169.078 29.48 169.768 23.78 169.768 19.4C169.768 15.08 169.048 9.41 165.148 9.41ZM181.048 6.5V11.42H184.438V14.81H181.048V23.33H184.438V26.72H181.048V33.65H177.088V6.5H181.048ZM186.275 10.37V7.1H201.515V9.26C201.515 18.41 196.535 27.32 188.525 32.69L185.735 30.32C192.305 26.33 197.495 18.29 197.405 10.37H186.275ZM211.055 6.5V33.65H207.095V6.5H211.055Z" fill="#FFBB4D"/>
<defs>
<clipPath id="clip0_60_275">
<rect width="40" height="40" fill="white" transform="translate(214)"/>
</clipPath>
</defs>
</svg>
