<svg width="127" height="37" viewBox="0 0 127 37" fill="none" xmlns="http://www.w3.org/2000/svg">
<path d="M3 3H7.75375L17.9451 29.6648H18.0914L28.2846 3H32.989V33.6379H29.804V6.83507H29.7052L19.3658 33.6379H16.3764L6.03873 6.83507H5.94003V33.6379H3V3Z" fill="#FFBB4D" stroke="#FFBB4D" stroke-width="5" stroke-miterlimit="10"/>
<path d="M39.7503 22.6336V22.085C39.7503 14.2309 44.6504 10.7161 50.2854 10.7161C56.8511 10.7161 59.8899 14.3689 59.8899 21.2178V22.8619H42.9354C43.0341 29.0259 45.9741 31.5372 51.6567 31.5372C54.8911 31.5372 57.1455 30.8523 59.1531 29.8931V32.0841C57.6831 32.9973 54.9881 34.0025 51.1667 34.0025C43.5717 34.0025 39.7503 29.8011 39.7503 22.6336ZM42.983 20.5789H56.6537C56.6537 15.42 54.5474 13.0451 50.185 13.0451C46.7056 13.0451 43.3743 15.0078 42.9812 20.5789H42.983Z" fill="#FFBB4D" stroke="#FFBB4D" stroke-width="5" stroke-miterlimit="10"/>
<path d="M90.6103 11.0824H93.8941L99.3335 29.8488H99.4798L105.605 11.0824H108.3L114.425 29.8488H114.621L120.011 11.0824H123L116.041 33.6379H112.856L106.927 15.5104H106.828L100.752 33.6379H97.5674L90.6086 11.0824H90.6103Z" fill="#FFBB4D" stroke="#FFBB4D" stroke-width="5" stroke-miterlimit="10"/>
<mask id="path-4-inside-1_28_224" fill="white">
<path d="M91.6591 27.7908C92.276 27.5527 93.6121 26.6641 94.0598 26.7298C94.3453 26.7709 94.9217 26.9713 95.0574 27.285C95.1861 27.6939 94.6308 27.937 94.6308 27.937M94.6308 27.9387C93.3776 28.6925 91.5375 29.6254 89.7608 30.4368C88.3736 31.0708 87.2279 31.667 85.9271 32.2057C82.2274 33.7364 78.466 33.628 74.731 32.3617C73.2804 31.869 71.9161 31.1529 70.5149 30.532C65.3804 28.2573 62.465 23.2544 63.2124 18.0069C64.143 11.4618 70.8233 6.76446 77.8173 7.73842C85.6927 8.83392 90.702 16.0836 88.3383 23.151C86.782 27.8073 83.2268 30.5091 78.0694 31.5668C78.3021 31.6144 78.4748 31.662 78.6528 31.6817C81.4712 31.9922 84.0376 31.3746 86.581 30.1839C88.7138 29.1853 89.7026 28.7976 91.6591 27.7908M65.8669 23.4762C71.7029 25.3929 77.1052 24.6341 82.0282 21.1324C83.7891 19.8809 85.1498 18.2927 86.2338 16.4909C86.4753 16.0902 86.5088 15.7584 86.2655 15.3691C86.0681 15.0554 85.9059 14.722 85.7191 14.3788C80.9971 21.5266 74.2534 24.4156 65.3399 23.1411C65.5143 23.2544 65.673 23.4121 65.8669 23.4762ZM64.8622 20.6775C64.7652 21.0634 64.9133 21.2605 65.3557 21.3689C72.8274 23.2117 80.7856 19.8825 84.2702 13.4705C84.5258 13.0008 84.5434 12.6805 84.0887 12.3553C83.8631 12.1943 83.6692 11.9956 83.4577 11.8116C79.2169 18.3584 73.0495 21.3229 64.8622 20.6775ZM72.8609 18.1481C73.1729 18.2861 73.7651 18.043 74.1317 17.8311C74.2939 17.7375 74.2569 17.2793 74.2287 16.9935C74.2181 16.8851 73.9995 16.7652 73.8515 16.6979C71.5795 15.6911 69.1788 15.2197 66.6689 15.2131C65.6959 15.2115 65.5849 15.3133 65.428 16.2922C68.0402 16.44 70.499 17.1019 72.8609 18.1465V18.1481ZM76.0829 30.1264C76.1869 30.128 76.3086 30.0327 76.3984 29.9572C77.8121 28.7812 79.6593 25.9119 80.1034 24.1841C79.3526 24.4764 78.6299 24.754 77.909 25.0431C77.8367 25.0726 77.7768 25.1531 77.7363 25.2221C77.2463 26.0449 76.8109 26.899 76.261 27.6857C75.7128 28.4708 75.0536 29.1885 74.3591 30.0377C74.9795 30.0722 75.5312 30.1132 76.0829 30.1247V30.1264ZM70.4743 14.047C71.65 14.272 72.7922 14.6415 74.0366 14.9717C73.8955 14.4182 73.7739 13.8696 73.6065 13.3325C73.5747 13.2291 73.3756 13.1354 73.2346 13.1026C71.4702 12.6854 69.6706 12.536 67.8674 12.7183C67.4814 12.7577 67.1448 13.2274 66.6882 13.5723C68.093 13.7415 69.2987 13.822 70.4743 14.047ZM77.1493 16.2117C77.2586 16.1296 77.3485 15.9325 77.3256 15.806C76.9096 13.4935 75.9384 11.3978 74.4173 9.5336C74.3027 9.39235 74.0031 9.38414 73.7475 9.30037C74.2904 10.6537 74.8703 11.8511 75.2422 13.101C75.6106 14.3393 75.771 15.6303 76.0318 16.9508C76.3914 16.7176 76.7845 16.4827 77.1458 16.2117H77.1493ZM73.5818 25.9464C73.4919 25.9595 73.395 26.0384 73.3368 26.1123C72.5842 27.0747 71.8386 28.0421 71.0542 29.0571C71.4156 29.2 71.8157 29.3725 72.2281 29.5137C72.3163 29.5433 72.4819 29.4907 72.5577 29.4234C73.7545 28.3591 74.7804 27.1716 75.5665 25.8101C75.5806 25.7871 75.5594 25.7477 75.5506 25.6935C74.8949 25.7756 74.2375 25.8528 73.5836 25.9464H73.5818ZM85.5464 25.1662C85.6116 25.0677 85.631 24.9034 85.5922 24.7918C85.2097 23.6634 84.8131 22.5383 84.3831 21.3115C83.8613 21.7204 83.4594 22.021 83.084 22.3462C83.0153 22.4053 83.0065 22.5909 83.0488 22.6845C83.5969 23.8671 84.1592 25.043 84.7426 26.2732C85.007 25.9135 85.2908 25.5489 85.5446 25.1679L85.5464 25.1662ZM71.3926 26.132C69.7799 25.8988 68.2482 25.6787 66.6583 25.4487C67.3968 26.536 68.3398 27.4196 69.5331 28.2097C70.1747 27.4936 70.7704 26.8267 71.3926 26.132ZM64.9345 17.8541C64.8886 18.2253 64.8393 18.6097 64.7882 19.0252C66.7217 19.3455 68.5742 19.2962 70.5554 18.9464C69.0078 18.291 66.4521 17.7983 64.9362 17.8541H64.9345ZM81.2086 25.9546C81.1716 26.0531 81.1698 26.1845 81.2086 26.2798C81.5012 26.9811 81.8096 27.6759 82.141 28.4347C82.4689 28.2097 82.7914 28.006 83.0875 27.7728C83.1739 27.7038 83.2497 27.5313 83.218 27.4394C82.8549 26.3373 82.4706 25.2418 82.0934 24.1446C82.0335 24.1496 81.9736 24.1545 81.9136 24.1594C81.6774 24.7573 81.4342 25.3535 81.2086 25.9546ZM78.9613 14.7713C79.5888 14.2731 79.7292 13.6769 79.3825 12.9827C78.7321 11.695 77.8949 10.5207 76.8761 9.46133C76.7492 9.32994 76.5641 9.24453 76.3403 9.19197C77.4666 10.9609 78.3391 12.802 78.8256 14.8042C78.9295 14.7795 78.9507 14.7812 78.963 14.7713H78.9613ZM87.1327 18.1826C86.5634 18.8856 86.0575 19.4999 85.5693 20.1256C85.527 20.1798 85.5693 20.3161 85.6098 20.3999C85.9747 21.1636 86.3484 21.9257 86.7414 22.7305C87.2508 21.2589 87.3671 19.7955 87.1327 18.181V18.1826ZM82.111 10.7818C81.1381 10.3614 80.2286 9.96884 79.3191 9.5763C79.3015 9.60915 79.2821 9.64364 79.2644 9.67649C79.8391 10.588 80.4119 11.5012 81.0376 12.4949C81.399 11.9184 81.7215 11.4027 82.111 10.7802V10.7818ZM72.8838 11.401C72.5895 10.8689 72.318 10.3794 72.0025 9.80952C71.1847 10.2103 70.4197 10.5831 69.6565 10.9576C69.6723 10.9937 69.6864 11.0315 69.7023 11.0676C70.7281 11.1744 71.754 11.2828 72.8838 11.401ZM80.6234 29.2312C80.4665 28.7944 80.3291 28.41 80.1598 27.9387C79.6928 28.5743 79.2856 29.1294 78.8767 29.6846C78.8908 29.7174 78.9066 29.7503 78.9207 29.7831C79.4689 29.6057 80.0171 29.4283 80.6234 29.2312Z"/>
</mask>
<path d="M91.6591 27.7908C92.276 27.5527 93.6121 26.6641 94.0598 26.7298C94.3453 26.7709 94.9217 26.9713 95.0574 27.285C95.1861 27.6939 94.6308 27.937 94.6308 27.937M94.6308 27.9387C93.3776 28.6925 91.5375 29.6254 89.7608 30.4368C88.3736 31.0708 87.2279 31.667 85.9271 32.2057C82.2274 33.7364 78.466 33.628 74.731 32.3617C73.2804 31.869 71.9161 31.1529 70.5149 30.532C65.3804 28.2573 62.465 23.2544 63.2124 18.0069C64.143 11.4618 70.8233 6.76446 77.8173 7.73842C85.6927 8.83392 90.702 16.0836 88.3383 23.151C86.782 27.8073 83.2268 30.5091 78.0694 31.5668C78.3021 31.6144 78.4748 31.662 78.6528 31.6817C81.4712 31.9922 84.0376 31.3746 86.581 30.1839C88.7138 29.1853 89.7026 28.7976 91.6591 27.7908M65.8669 23.4762C71.7029 25.3929 77.1052 24.6341 82.0282 21.1324C83.7891 19.8809 85.1498 18.2927 86.2338 16.4909C86.4753 16.0902 86.5088 15.7584 86.2655 15.3691C86.0681 15.0554 85.9059 14.722 85.7191 14.3788C80.9971 21.5266 74.2534 24.4156 65.3399 23.1411C65.5143 23.2544 65.673 23.4121 65.8669 23.4762ZM64.8622 20.6775C64.7652 21.0634 64.9133 21.2605 65.3557 21.3689C72.8274 23.2117 80.7856 19.8825 84.2702 13.4705C84.5258 13.0008 84.5434 12.6805 84.0887 12.3553C83.8631 12.1943 83.6692 11.9956 83.4577 11.8116C79.2169 18.3584 73.0495 21.3229 64.8622 20.6775ZM72.8609 18.1481C73.1729 18.2861 73.7651 18.043 74.1317 17.8311C74.2939 17.7375 74.2569 17.2793 74.2287 16.9935C74.2181 16.8851 73.9995 16.7652 73.8515 16.6979C71.5795 15.6911 69.1788 15.2197 66.6689 15.2131C65.6959 15.2115 65.5849 15.3133 65.428 16.2922C68.0402 16.44 70.499 17.1019 72.8609 18.1465V18.1481ZM76.0829 30.1264C76.1869 30.128 76.3086 30.0327 76.3984 29.9572C77.8121 28.7812 79.6593 25.9119 80.1034 24.1841C79.3526 24.4764 78.6299 24.754 77.909 25.0431C77.8367 25.0726 77.7768 25.1531 77.7363 25.2221C77.2463 26.0449 76.8109 26.899 76.261 27.6857C75.7128 28.4708 75.0536 29.1885 74.3591 30.0377C74.9795 30.0722 75.5312 30.1132 76.0829 30.1247V30.1264ZM70.4743 14.047C71.65 14.272 72.7922 14.6415 74.0366 14.9717C73.8955 14.4182 73.7739 13.8696 73.6065 13.3325C73.5747 13.2291 73.3756 13.1354 73.2346 13.1026C71.4702 12.6854 69.6706 12.536 67.8674 12.7183C67.4814 12.7577 67.1448 13.2274 66.6882 13.5723C68.093 13.7415 69.2987 13.822 70.4743 14.047ZM77.1493 16.2117C77.2586 16.1296 77.3485 15.9325 77.3256 15.806C76.9096 13.4935 75.9384 11.3978 74.4173 9.5336C74.3027 9.39235 74.0031 9.38414 73.7475 9.30037C74.2904 10.6537 74.8703 11.8511 75.2422 13.101C75.6106 14.3393 75.771 15.6303 76.0318 16.9508C76.3914 16.7176 76.7845 16.4827 77.1458 16.2117H77.1493ZM73.5818 25.9464C73.4919 25.9595 73.395 26.0384 73.3368 26.1123C72.5842 27.0747 71.8386 28.0421 71.0542 29.0571C71.4156 29.2 71.8157 29.3725 72.2281 29.5137C72.3163 29.5433 72.4819 29.4907 72.5577 29.4234C73.7545 28.3591 74.7804 27.1716 75.5665 25.8101C75.5806 25.7871 75.5594 25.7477 75.5506 25.6935C74.8949 25.7756 74.2375 25.8528 73.5836 25.9464H73.5818ZM85.5464 25.1662C85.6116 25.0677 85.631 24.9034 85.5922 24.7918C85.2097 23.6634 84.8131 22.5383 84.3831 21.3115C83.8613 21.7204 83.4594 22.021 83.084 22.3462C83.0153 22.4053 83.0065 22.5909 83.0488 22.6845C83.5969 23.8671 84.1592 25.043 84.7426 26.2732C85.007 25.9135 85.2908 25.5489 85.5446 25.1679L85.5464 25.1662ZM71.3926 26.132C69.7799 25.8988 68.2482 25.6787 66.6583 25.4487C67.3968 26.536 68.3398 27.4196 69.5331 28.2097C70.1747 27.4936 70.7704 26.8267 71.3926 26.132ZM64.9345 17.8541C64.8886 18.2253 64.8393 18.6097 64.7882 19.0252C66.7217 19.3455 68.5742 19.2962 70.5554 18.9464C69.0078 18.291 66.4521 17.7983 64.9362 17.8541H64.9345ZM81.2086 25.9546C81.1716 26.0531 81.1698 26.1845 81.2086 26.2798C81.5012 26.9811 81.8096 27.6759 82.141 28.4347C82.4689 28.2097 82.7914 28.006 83.0875 27.7728C83.1739 27.7038 83.2497 27.5313 83.218 27.4394C82.8549 26.3373 82.4706 25.2418 82.0934 24.1446C82.0335 24.1496 81.9736 24.1545 81.9136 24.1594C81.6774 24.7573 81.4342 25.3535 81.2086 25.9546ZM78.9613 14.7713C79.5888 14.2731 79.7292 13.6769 79.3825 12.9827C78.7321 11.695 77.8949 10.5207 76.8761 9.46133C76.7492 9.32994 76.5641 9.24453 76.3403 9.19197C77.4666 10.9609 78.3391 12.802 78.8256 14.8042C78.9295 14.7795 78.9507 14.7812 78.963 14.7713H78.9613ZM87.1327 18.1826C86.5634 18.8856 86.0575 19.4999 85.5693 20.1256C85.527 20.1798 85.5693 20.3161 85.6098 20.3999C85.9747 21.1636 86.3484 21.9257 86.7414 22.7305C87.2508 21.2589 87.3671 19.7955 87.1327 18.181V18.1826ZM82.111 10.7818C81.1381 10.3614 80.2286 9.96884 79.3191 9.5763C79.3015 9.60915 79.2821 9.64364 79.2644 9.67649C79.8391 10.588 80.4119 11.5012 81.0376 12.4949C81.399 11.9184 81.7215 11.4027 82.111 10.7802V10.7818ZM72.8838 11.401C72.5895 10.8689 72.318 10.3794 72.0025 9.80952C71.1847 10.2103 70.4197 10.5831 69.6565 10.9576C69.6723 10.9937 69.6864 11.0315 69.7023 11.0676C70.7281 11.1744 71.754 11.2828 72.8838 11.401ZM80.6234 29.2312C80.4665 28.7944 80.3291 28.41 80.1598 27.9387C79.6928 28.5743 79.2856 29.1294 78.8767 29.6846C78.8908 29.7174 78.9066 29.7503 78.9207 29.7831C79.4689 29.6057 80.0171 29.4283 80.6234 29.2312Z" fill="#FFBB4D"/>
<path d="M91.6591 27.7908L91.299 26.8579L91.2491 26.8772L91.2015 26.9017L91.6591 27.7908ZM94.0598 26.7298L93.9146 27.7192L93.9174 27.7196L94.0598 26.7298ZM95.0574 27.285L96.0113 26.9848L95.9958 26.9354L95.9752 26.8879L95.0574 27.285ZM89.7608 30.4368L89.3454 29.5271L89.3451 29.5273L89.7608 30.4368ZM85.9271 32.2057L86.3094 33.1297L86.3097 33.1296L85.9271 32.2057ZM74.731 32.3617L74.4094 33.3086L74.4099 33.3088L74.731 32.3617ZM70.5149 30.532L70.9199 29.6178L70.9199 29.6178L70.5149 30.532ZM63.2124 18.0069L64.2024 18.1479L64.2024 18.1477L63.2124 18.0069ZM77.8173 7.73842L77.6794 8.72887L77.6796 8.72889L77.8173 7.73842ZM88.3383 23.151L87.39 22.8338L87.3899 22.834L88.3383 23.151ZM78.0694 31.5668L77.8685 30.5872L77.8688 32.5465L78.0694 31.5668ZM78.6528 31.6817L78.5428 32.6757L78.5433 32.6757L78.6528 31.6817ZM86.581 30.1839L87.005 31.0895L87.0051 31.0895L86.581 30.1839ZM65.8669 23.4762L65.5532 24.4257L65.5548 24.4262L65.8669 23.4762ZM82.0282 21.1324L81.4489 20.3173L81.4486 20.3175L82.0282 21.1324ZM86.2338 16.4909L85.3773 15.9748L85.3769 15.9754L86.2338 16.4909ZM86.2655 15.3691L87.1136 14.8392L87.1119 14.8365L86.2655 15.3691ZM85.7191 14.3788L86.5974 13.9007L85.8019 12.4392L84.8847 13.8276L85.7191 14.3788ZM65.3399 23.1411L65.4814 22.1512L64.7952 23.9798L65.3399 23.1411ZM64.8622 20.6775L64.9408 19.6806L64.0982 19.6141L63.8923 20.4339L64.8622 20.6775ZM65.3557 21.3689L65.5952 20.398L65.5937 20.3977L65.3557 21.3689ZM84.2702 13.4705L83.3918 12.9926L83.3916 12.993L84.2702 13.4705ZM84.0887 12.3553L84.6704 11.5419L84.6695 11.5412L84.0887 12.3553ZM83.4577 11.8116L84.1139 11.0571L83.2447 10.3011L82.6184 11.268L83.4577 11.8116ZM72.8609 18.1481H71.8609V18.7993L72.4565 19.0627L72.8609 18.1481ZM74.1317 17.8311L73.6318 16.9651L73.6314 16.9653L74.1317 17.8311ZM74.2287 16.9935L73.2334 17.0906L73.2335 17.0917L74.2287 16.9935ZM73.8515 16.6979L74.2655 15.7876L74.2566 15.7836L73.8515 16.6979ZM66.6689 15.2131L66.6715 14.2131L66.6705 14.2131L66.6689 15.2131ZM65.428 16.2922L64.4406 16.134L64.2653 17.228L65.3715 17.2906L65.428 16.2922ZM72.8609 18.1465H73.8609V17.4953L73.2654 17.2319L72.8609 18.1465ZM76.0829 30.1264H75.0829V31.1107L76.0671 31.1262L76.0829 30.1264ZM76.3984 29.9572L75.7589 29.1884L75.755 29.1917L76.3984 29.9572ZM80.1034 24.1841L81.072 24.433L81.5574 22.5449L79.7406 23.2522L80.1034 24.1841ZM77.909 25.0431L77.5368 24.1149L77.5304 24.1175L77.909 25.0431ZM77.7363 25.2221L78.5955 25.7337L78.5984 25.7287L77.7363 25.2221ZM76.261 27.6857L75.4414 27.1128L75.4411 27.1132L76.261 27.6857ZM74.3591 30.0377L73.585 29.4046L72.3399 30.927L74.3036 31.0361L74.3591 30.0377ZM76.0829 30.1247H77.0829V29.1453L76.1038 29.1249L76.0829 30.1247ZM74.0366 14.9717L73.7801 15.9382L75.426 16.3749L75.0056 14.7248L74.0366 14.9717ZM73.6065 13.3325L72.6504 13.6257L72.6518 13.6302L73.6065 13.3325ZM73.2346 13.1026L73.0045 14.0758L73.0077 14.0765L73.2346 13.1026ZM67.8674 12.7183L67.7668 11.7233L67.7658 11.7234L67.8674 12.7183ZM66.6882 13.5723L66.0854 12.7745L64.1076 14.2688L66.5687 14.5652L66.6882 13.5723ZM77.1493 16.2117V17.2117H77.4832L77.7501 17.0111L77.1493 16.2117ZM77.3256 15.806L76.3414 15.9831L76.3416 15.9843L77.3256 15.806ZM74.4173 9.5336L73.6406 10.1635L73.6425 10.1658L74.4173 9.5336ZM73.7475 9.30037L74.0589 8.35011L72.0209 7.68216L72.8194 9.67267L73.7475 9.30037ZM75.2422 13.101L76.2007 12.8158L76.2006 12.8158L75.2422 13.101ZM76.0318 16.9508L75.0508 17.1446L75.337 18.5934L76.576 17.7898L76.0318 16.9508ZM77.1458 16.2117V15.2117H76.8125L76.5458 15.4117L77.1458 16.2117ZM73.5818 25.9464V24.9464H73.5091L73.4372 24.9569L73.5818 25.9464ZM73.3368 26.1123L72.551 25.4938L72.5491 25.4963L73.3368 26.1123ZM71.0542 29.0571L70.2629 28.4457L69.4498 29.498L70.6865 29.9871L71.0542 29.0571ZM72.2281 29.5137L71.9041 30.4598L71.9101 30.4618L72.2281 29.5137ZM72.5577 29.4234L73.2219 30.171L73.2223 30.1707L72.5577 29.4234ZM75.5665 25.8101L74.714 25.2873L74.7071 25.2986L74.7005 25.3101L75.5665 25.8101ZM75.5506 25.6935L76.5377 25.533L76.3829 24.5814L75.4264 24.7012L75.5506 25.6935ZM73.5836 25.9464V26.9464H73.6548L73.7253 26.9363L73.5836 25.9464ZM85.5464 25.1662L86.2275 25.8984L86.3146 25.8173L86.3803 25.7181L85.5464 25.1662ZM85.5922 24.7918L84.6451 25.1128L84.6475 25.1198L85.5922 24.7918ZM84.3831 21.3115L85.3267 20.9806L84.8649 19.6631L83.7661 20.5244L84.3831 21.3115ZM83.084 22.3462L83.7361 23.1043L83.7387 23.102L83.084 22.3462ZM83.0488 22.6845L82.1374 23.0963L82.1415 23.1051L83.0488 22.6845ZM84.7426 26.2732L83.8391 26.7017L84.5566 28.2147L85.5484 26.8655L84.7426 26.2732ZM85.5446 25.1679L84.8634 24.4357L84.7775 24.5157L84.7123 24.6135L85.5446 25.1679ZM71.3926 26.132L72.1376 26.7991L73.3823 25.4093L71.5358 25.1423L71.3926 26.132ZM66.6583 25.4487L66.8014 24.459L64.5566 24.1344L65.8311 26.0106L66.6583 25.4487ZM69.5331 28.2097L68.9811 29.0435L69.7014 29.5204L70.2779 28.8769L69.5331 28.2097ZM64.9345 17.8541V16.8541H64.0503L63.942 17.7316L64.9345 17.8541ZM64.7882 19.0252L63.7956 18.9031L63.6785 19.855L64.6247 20.0117L64.7882 19.0252ZM70.5554 18.9464L70.7293 19.9311L74.0576 19.3434L70.9453 18.0255L70.5554 18.9464ZM64.9362 17.8541V18.8541H64.9546L64.973 18.8535L64.9362 17.8541ZM81.2086 25.9546L82.1447 26.3062L82.1448 26.306L81.2086 25.9546ZM81.2086 26.2798L80.2824 26.6568L80.2857 26.6648L81.2086 26.2798ZM82.141 28.4347L81.2246 28.8349L81.709 29.9441L82.7069 29.2592L82.141 28.4347ZM83.0875 27.7728L83.7063 28.5584L83.7116 28.5541L83.0875 27.7728ZM83.218 27.4394L82.2681 27.7523L82.2726 27.7654L83.218 27.4394ZM82.0934 24.1446L83.0391 23.8195L82.7863 23.0843L82.0115 23.148L82.0934 24.1446ZM81.9136 24.1594L81.8317 23.1628L81.212 23.2137L80.9836 23.792L81.9136 24.1594ZM78.9613 14.7713L78.3395 13.9881L76.0936 15.7713H78.9613V14.7713ZM79.3825 12.9827L80.2772 12.5359L80.2751 12.5318L79.3825 12.9827ZM76.8761 9.46133L77.5969 8.76816L77.5954 8.76661L76.8761 9.46133ZM76.3403 9.19197L76.5689 8.21845L74.1774 7.65696L75.4968 9.72907L76.3403 9.19197ZM78.8256 14.8042L77.8538 15.0403L78.0886 16.0064L79.0561 15.7772L78.8256 14.8042ZM78.963 14.7713L79.5871 15.5527L81.8174 13.7713H78.963V14.7713ZM87.1327 18.1826L87.9098 18.812L88.1327 18.5368V18.1826H87.1327ZM85.5693 20.1256L86.3576 20.7409L86.3577 20.7408L85.5693 20.1256ZM85.6098 20.3999L86.5122 19.9688L86.5099 19.9643L85.6098 20.3999ZM86.7414 22.7305L85.8429 23.1694L86.8991 25.332L87.6864 23.0576L86.7414 22.7305ZM87.1327 18.181L88.1223 18.0373L86.1327 18.181H87.1327ZM82.111 10.7818L81.7144 11.6998L83.111 12.3034V10.7818H82.111ZM79.3191 9.5763L79.7153 8.65816L78.8721 8.29424L78.4379 9.10348L79.3191 9.5763ZM79.2644 9.67649L78.3833 9.20367L78.1079 9.71696L78.4185 10.2097L79.2644 9.67649ZM81.0376 12.4949L80.1914 13.0278L81.0396 14.3747L81.8849 13.026L81.0376 12.4949ZM82.111 10.7802H83.111V7.29709L81.2633 10.2497L82.111 10.7802ZM72.8838 11.401L72.7797 12.3956L74.6872 12.5953L73.7589 10.917L72.8838 11.401ZM72.0025 9.80952L72.8774 9.32519L72.4167 8.49298L71.5625 8.91154L72.0025 9.80952ZM69.6565 10.9576L69.216 10.0598L68.3556 10.482L68.7408 11.3596L69.6565 10.9576ZM69.7023 11.0676L68.7867 11.4696L69.0204 12.0021L69.5988 12.0623L69.7023 11.0676ZM80.6234 29.2312L80.9325 30.1823L81.913 29.8636L81.5646 28.8933L80.6234 29.2312ZM80.1598 27.9387L81.101 27.6008L80.4664 25.8328L79.354 27.3465L80.1598 27.9387ZM78.8767 29.6846L78.0715 29.0915L77.7318 29.5527L77.9578 30.079L78.8767 29.6846ZM78.9207 29.7831L78.0018 30.1776L78.3614 31.0152L79.2286 30.7345L78.9207 29.7831ZM92.0192 28.7237C92.3974 28.5777 92.9979 28.2351 93.3854 28.033C93.6126 27.9145 93.8022 27.8225 93.9484 27.7651C94.0211 27.7365 94.062 27.7249 94.0768 27.7215C94.1041 27.7152 94.0351 27.7369 93.9146 27.7192L94.2049 25.7404C93.9725 25.7063 93.7638 25.7414 93.6299 25.7721C93.4836 25.8056 93.3418 25.8545 93.2167 25.9037C92.9672 26.0018 92.7002 26.1346 92.4603 26.2598C91.9136 26.545 91.5377 26.7658 91.299 26.8579L92.0192 28.7237ZM93.9174 27.7196C93.9287 27.7213 93.9675 27.7286 94.0245 27.746C94.0796 27.7629 94.135 27.7841 94.182 27.8067C94.2319 27.8306 94.2521 27.8463 94.2508 27.8453C94.2489 27.8437 94.2349 27.8322 94.2154 27.8085C94.1958 27.7847 94.166 27.743 94.1396 27.682L95.9752 26.8879C95.7554 26.3798 95.2852 26.1177 95.0475 26.0036C94.7611 25.8661 94.4478 25.7753 94.2021 25.74L93.9174 27.7196ZM94.1035 27.5851C94.0582 27.441 94.0739 27.2883 94.124 27.1699C94.165 27.0729 94.2157 27.028 94.2186 27.0254C94.2253 27.0193 94.2229 27.0223 94.2119 27.0288C94.2082 27.0309 94.2065 27.0317 94.2082 27.0309C94.2091 27.0304 94.2112 27.0294 94.2147 27.0277C94.2164 27.0269 94.2185 27.026 94.221 27.0248C94.2223 27.0243 94.2236 27.0237 94.2251 27.023C94.2258 27.0227 94.2266 27.0224 94.2274 27.022C94.2278 27.0218 94.2281 27.0217 94.2286 27.0215C94.2288 27.0214 94.2291 27.0213 94.2292 27.0212C94.2295 27.0211 94.2298 27.021 94.6308 27.937C95.0319 28.8531 95.0322 28.8529 95.0325 28.8528C95.0326 28.8527 95.033 28.8526 95.0332 28.8525C95.0336 28.8523 95.0341 28.8521 95.0345 28.8519C95.0354 28.8515 95.0364 28.8511 95.0374 28.8506C95.0394 28.8498 95.0415 28.8488 95.0438 28.8478C95.0484 28.8457 95.0536 28.8433 95.0594 28.8406C95.0709 28.8352 95.0848 28.8286 95.1007 28.8207C95.1323 28.8049 95.1729 28.7836 95.2193 28.7565C95.3083 28.7046 95.4367 28.6213 95.5661 28.5033C95.8001 28.29 96.2502 27.7443 96.0113 26.9848L94.1035 27.5851ZM94.1154 27.0817C92.9071 27.8086 91.1043 28.7239 89.3454 29.5271L90.1762 31.3464C91.9706 30.527 93.8482 29.5764 95.1463 28.7956L94.1154 27.0817ZM89.3451 29.5273C87.893 30.1909 86.8305 30.7492 85.5445 31.2818L86.3097 33.1296C87.6253 32.5848 88.8542 31.9506 90.1764 31.3463L89.3451 29.5273ZM85.5448 31.2817C82.1063 32.7043 78.5989 32.6172 75.0521 31.4147L74.4099 33.3088C78.333 34.6389 82.3484 34.7686 86.3094 33.1297L85.5448 31.2817ZM75.0526 31.4148C73.6569 30.9408 72.4042 30.2753 70.9199 29.6178L70.1098 31.4463C71.4281 32.0304 72.9038 32.7972 74.4094 33.3086L75.0526 31.4148ZM70.9199 29.6178C66.161 27.5094 63.5232 22.9171 64.2024 18.1479L62.2224 17.8659C61.4069 23.5918 64.5998 29.0052 70.1098 31.4463L70.9199 29.6178ZM64.2024 18.1477C65.0469 12.2084 71.1692 7.82227 77.6794 8.72887L77.9553 6.74798C70.4775 5.70665 63.2391 10.7153 62.2223 17.8661L64.2024 18.1477ZM77.6796 8.72889C85.0316 9.7516 89.5254 16.4489 87.39 22.8338L89.2867 23.4681C91.8786 15.7183 86.3537 7.91625 77.9551 6.74796L77.6796 8.72889ZM87.3899 22.834C85.9691 27.0848 82.7516 29.5857 77.8685 30.5872L78.2703 32.5464C83.702 31.4324 87.5949 28.5297 89.2868 23.468L87.3899 22.834ZM77.8688 32.5465C78.0144 32.5763 78.3054 32.6494 78.5428 32.6757L78.7629 30.6878C78.6442 30.6747 78.5897 30.6526 78.27 30.5871L77.8688 32.5465ZM78.5433 32.6757C81.5893 33.0112 84.3416 32.3364 87.005 31.0895L86.157 29.2782C83.7335 30.4128 81.3532 30.9731 78.7623 30.6878L78.5433 32.6757ZM87.0051 31.0895C89.0935 30.1117 90.1401 29.6971 92.1167 28.68L91.2015 26.9017C89.2651 27.8982 88.3341 28.2588 86.157 29.2782L87.0051 31.0895ZM65.5548 24.4262C71.6818 26.4385 77.4169 25.6396 82.6078 21.9473L81.4486 20.3175C76.7936 23.6286 71.7239 24.3472 66.1789 22.5261L65.5548 24.4262ZM82.6075 21.9475C84.4997 20.6027 85.9489 18.9041 87.0907 17.0065L85.3769 15.9754C84.3506 17.6812 83.0784 19.1591 81.4489 20.3173L82.6075 21.9475ZM87.0903 17.007C87.2594 16.7263 87.4121 16.3789 87.4304 15.9705C87.4495 15.545 87.3183 15.1669 87.1136 14.8392L85.4175 15.8991C85.4392 15.9338 85.441 15.9453 85.4383 15.9364C85.437 15.9319 85.4351 15.9239 85.4337 15.9132C85.4324 15.9023 85.432 15.8913 85.4324 15.8809C85.4334 15.8591 85.4376 15.8522 85.4327 15.866C85.4271 15.8818 85.4123 15.9167 85.3773 15.9748L87.0903 17.007ZM87.1119 14.8365C86.9364 14.5576 86.8138 14.2983 86.5974 13.9007L84.8408 14.8568C84.998 15.1458 85.1998 15.5532 85.4192 15.9018L87.1119 14.8365ZM84.8847 13.8276C82.6134 17.2657 79.89 19.632 76.7066 20.9995C73.5194 22.3686 69.7973 22.7683 65.4814 22.1512L65.1983 24.131C69.7959 24.7885 73.9024 24.3809 77.496 22.8371C81.0933 21.2918 84.1028 18.6396 86.5535 14.93L84.8847 13.8276ZM64.7952 23.9798C64.8644 24.0247 64.8527 24.0244 65.0125 24.1392C65.1217 24.2176 65.3091 24.3451 65.5532 24.4257L66.1806 22.5266C66.2308 22.5432 66.2419 22.5598 66.1797 22.5151C66.1469 22.4915 66.122 22.4722 66.0672 22.4313C66.0207 22.3965 65.9567 22.3493 65.8845 22.3025L64.7952 23.9798ZM63.8923 20.4339C63.8089 20.7661 63.7705 21.2619 64.0959 21.7127C64.3888 22.1183 64.8279 22.2692 65.1177 22.3402L65.5937 20.3977C65.5333 20.3829 65.5264 20.3751 65.5487 20.387C65.5747 20.4008 65.6481 20.4459 65.7174 20.5419C65.7912 20.6441 65.8235 20.7528 65.8316 20.8374C65.8386 20.9104 65.826 20.9452 65.8321 20.9211L63.8923 20.4339ZM65.1163 22.3398C72.9966 24.2834 81.4313 20.7886 85.1489 13.948L83.3916 12.993C80.1398 18.9765 72.6582 22.14 65.5952 20.398L65.1163 22.3398ZM85.1486 13.9484C85.297 13.6757 85.4966 13.2461 85.4394 12.7452C85.3748 12.1793 85.0245 11.7951 84.6704 11.5419L83.507 13.1687C83.5588 13.2057 83.5511 13.2105 83.5262 13.175C83.5128 13.1559 83.496 13.1272 83.4813 13.0896C83.4665 13.0515 83.4568 13.0115 83.4523 12.9721C83.4433 12.8934 83.4585 12.8477 83.4562 12.8553C83.4528 12.8664 83.4379 12.9079 83.3918 12.9926L85.1486 13.9484ZM84.6695 11.5412C84.4928 11.4152 84.411 11.3155 84.1139 11.0571L82.8014 12.5662C82.9274 12.6757 83.2333 12.9735 83.5079 13.1694L84.6695 11.5412ZM82.6184 11.268C80.5837 14.409 78.1148 16.651 75.2088 18.0393C72.3003 19.4289 68.8932 19.9922 64.9408 19.6806L64.7836 21.6744C69.0184 22.0082 72.7887 21.412 76.0709 19.8439C79.3556 18.2747 82.0909 15.761 84.297 12.3553L82.6184 11.268ZM72.4565 19.0627C72.966 19.288 73.5022 19.1571 73.7637 19.0785C74.089 18.9807 74.4006 18.8308 74.6321 18.697L73.6314 16.9653C73.4963 17.0434 73.3284 17.1209 73.1879 17.1632C73.1554 17.173 73.1287 17.1795 73.1081 17.1836C73.0979 17.1856 73.0901 17.1869 73.0844 17.1877C73.0816 17.188 73.0795 17.1883 73.078 17.1884C73.0766 17.1886 73.0759 17.1886 73.0759 17.1886C73.076 17.1886 73.0769 17.1886 73.0786 17.1885C73.0803 17.1885 73.083 17.1885 73.0866 17.1886C73.0935 17.1887 73.105 17.1893 73.1203 17.1913C73.1499 17.1952 73.2017 17.2054 73.2653 17.2336L72.4565 19.0627ZM74.6317 18.6972C74.9927 18.4888 75.1253 18.1545 75.1739 17.9986C75.2292 17.8214 75.245 17.6502 75.2505 17.5306C75.2618 17.2873 75.2376 17.0346 75.2238 16.8953L73.2335 17.0917C73.2402 17.1596 73.2462 17.2257 73.2499 17.2896C73.2537 17.3551 73.2542 17.4045 73.2527 17.4382C73.2507 17.4806 73.2471 17.4593 73.2646 17.4033C73.2742 17.3723 73.2972 17.3082 73.3473 17.2318C73.399 17.1529 73.4887 17.0477 73.6318 16.9651L74.6317 18.6972ZM75.2239 16.8964C75.1918 16.5669 75.0211 16.3459 74.936 16.2495C74.8389 16.1394 74.7356 16.0602 74.6637 16.0101C74.5176 15.9082 74.3638 15.8323 74.2655 15.7876L73.4375 17.6081C73.458 17.6175 73.4784 17.6275 73.4961 17.6371C73.5151 17.6473 73.5222 17.6523 73.5196 17.6505C73.5177 17.6492 73.5095 17.6434 73.497 17.6328C73.4851 17.6227 73.4629 17.6029 73.4362 17.5726C73.4104 17.5433 73.3698 17.4924 73.3312 17.4193C73.2923 17.3457 73.2474 17.234 73.2334 17.0906L75.2239 16.8964ZM74.2566 15.7836C71.8474 14.716 69.3082 14.22 66.6715 14.2131L66.6662 16.2131C69.0494 16.2193 71.3115 16.6661 73.4463 17.6121L74.2566 15.7836ZM66.6705 14.2131C66.4265 14.2127 66.1635 14.2173 65.9243 14.2566C65.672 14.2981 65.3604 14.3909 65.0845 14.6318C64.8113 14.8705 64.677 15.1641 64.5999 15.4022C64.5259 15.6308 64.4797 15.8897 64.4406 16.134L66.4154 16.4504C66.434 16.3341 66.4502 16.2423 66.4657 16.1672C66.4814 16.0915 66.4938 16.0455 66.5026 16.0185C66.5208 15.9624 66.5045 16.0471 66.4003 16.1381C66.2934 16.2314 66.2018 16.2379 66.2488 16.2301C66.2725 16.2262 66.3159 16.2212 66.3896 16.2178C66.4627 16.2143 66.5525 16.2129 66.6672 16.2131L66.6705 14.2131ZM65.3715 17.2906C67.8471 17.4307 70.1883 18.0579 72.4564 19.061L73.2654 17.2319C70.8097 16.1459 68.2332 15.4493 65.4845 15.2938L65.3715 17.2906ZM71.8609 18.1465V18.1481H73.8609V18.1465H71.8609ZM76.0671 31.1262C76.404 31.1316 76.6587 30.9898 76.7636 30.9264C76.8893 30.8503 76.9925 30.7642 77.0418 30.7227L75.755 29.1917C75.7145 29.2257 75.7119 29.2251 75.7284 29.2151C75.739 29.2087 75.7722 29.1893 75.8246 29.1704C75.8759 29.1519 75.9717 29.1245 76.0987 29.1265L76.0671 31.1262ZM77.038 30.726C77.8566 30.045 78.7363 28.9382 79.4558 27.8181C80.1738 26.7005 80.8113 25.4471 81.072 24.433L79.1349 23.9351C78.9514 24.6489 78.4432 25.694 77.7731 26.7371C77.1047 27.7776 76.3539 28.6935 75.7589 29.1884L77.038 30.726ZM79.7406 23.2522C78.9954 23.5423 78.2639 23.8233 77.5368 24.1149L78.2812 25.9712C78.9959 25.6846 79.7097 25.4105 80.4663 25.1159L79.7406 23.2522ZM77.5304 24.1175C77.3005 24.2116 77.1484 24.3586 77.0662 24.4502C76.9777 24.5489 76.9145 24.6467 76.8741 24.7154L78.5984 25.7287C78.5973 25.7306 78.5941 25.736 78.5883 25.7443C78.5827 25.7522 78.572 25.7668 78.5553 25.7853C78.5313 25.8121 78.4453 25.9041 78.2876 25.9686L77.5304 24.1175ZM76.8771 24.7104C76.3403 25.6119 75.9656 26.3628 75.4414 27.1128L77.0806 28.2586C77.6562 27.4352 78.1522 26.478 78.5955 25.7337L76.8771 24.7104ZM75.4411 27.1132C74.9209 27.8581 74.3292 28.4947 73.585 29.4046L75.1332 30.6708C75.778 29.8823 76.5046 29.0835 77.0809 28.2582L75.4411 27.1132ZM74.3036 31.0361C74.899 31.0692 75.4873 31.1125 76.0621 31.1245L76.1038 29.1249C75.5752 29.1139 75.06 29.0751 74.4146 29.0392L74.3036 31.0361ZM75.0829 30.1247V30.1264H77.0829V30.1247H75.0829ZM70.2863 15.0292C71.4176 15.2457 72.4653 15.5894 73.7801 15.9382L74.293 14.0051C73.119 13.6937 71.8824 13.2983 70.6623 13.0648L70.2863 15.0292ZM75.0056 14.7248C74.8749 14.2118 74.739 13.6054 74.5612 13.0349L72.6518 13.6302C72.8088 14.1338 72.9162 14.6245 73.0675 15.2186L75.0056 14.7248ZM74.5625 13.0394C74.4842 12.784 74.3328 12.6166 74.2401 12.5293C74.1393 12.4345 74.0356 12.367 73.9545 12.321C73.7944 12.2303 73.6189 12.1653 73.4614 12.1287L73.0077 14.0765C72.9912 14.0727 72.9858 14.0709 72.9685 14.0611C72.9588 14.0556 72.9196 14.033 72.8695 13.9859C72.8275 13.9463 72.7128 13.8293 72.6504 13.6257L74.5625 13.0394ZM73.4647 12.1294C71.6037 11.6894 69.692 11.5287 67.7668 11.7233L67.968 13.7132C69.6492 13.5432 71.3367 13.6814 73.0045 14.0758L73.4647 12.1294ZM67.7658 11.7234C67.2282 11.7783 66.8359 12.1121 66.6465 12.2775C66.367 12.5216 66.2841 12.6243 66.0854 12.7745L67.2911 14.3702C67.4429 14.2555 67.5768 14.1365 67.6859 14.0366C67.8086 13.9243 67.8782 13.8572 67.9621 13.7839C68.0396 13.7163 68.0784 13.6895 68.0935 13.6806C68.1055 13.6735 68.0594 13.7039 67.969 13.7131L67.7658 11.7234ZM66.5687 14.5652C68.045 14.7429 69.1545 14.8125 70.2863 15.0292L70.6623 13.0648C69.4428 12.8314 68.1411 12.7401 66.8078 12.5795L66.5687 14.5652ZM77.7501 17.0111C77.9812 16.8375 78.1227 16.6085 78.2018 16.4294C78.2761 16.2611 78.3708 15.966 78.3096 15.6277L76.3416 15.9843C76.32 15.8653 76.3314 15.7747 76.3396 15.7301C76.3486 15.6811 76.3617 15.6455 76.3722 15.6216C76.383 15.5971 76.3977 15.5702 76.4194 15.5406C76.4393 15.5135 76.4796 15.4641 76.5486 15.4123L77.7501 17.0111ZM78.3098 15.629C77.8631 13.1455 76.8179 10.8939 75.1921 8.90138L73.6425 10.1658C75.0589 11.9016 75.9561 13.8415 76.3414 15.9831L78.3098 15.629ZM75.1939 8.90365C75.0344 8.707 74.8457 8.59894 74.7146 8.53922C74.5838 8.47967 74.4586 8.4454 74.3769 8.42507C74.3019 8.40639 74.2021 8.38537 74.1626 8.37651C74.1052 8.36365 74.0762 8.35576 74.0589 8.35011L73.436 10.2506C73.5466 10.2869 73.6508 10.3114 73.7251 10.3281C73.7595 10.3358 73.8026 10.3451 73.8266 10.3504C73.856 10.3568 73.8768 10.3616 73.8936 10.3658C73.9331 10.3756 73.9203 10.3751 73.8859 10.3595C73.8511 10.3436 73.7429 10.2896 73.6406 10.1635L75.1939 8.90365ZM72.8194 9.67267C73.3978 11.1147 73.9288 12.1933 74.2837 13.3861L76.2006 12.8158C75.8118 11.5088 75.1829 10.1928 74.6756 8.92807L72.8194 9.67267ZM74.2837 13.3861C74.6348 14.5663 74.771 15.7283 75.0508 17.1446L77.0129 16.757C76.7709 15.5323 76.5863 14.1123 76.2007 12.8158L74.2837 13.3861ZM76.576 17.7898C76.8937 17.5837 77.3482 17.3099 77.7458 17.0117L76.5458 15.4117C76.2207 15.6555 75.8891 15.8515 75.4876 16.1118L76.576 17.7898ZM77.1458 17.2117H77.1493V15.2117H77.1458V17.2117ZM73.4372 24.9569C73.1766 24.995 72.98 25.1113 72.8654 25.1933C72.7414 25.2821 72.6349 25.3871 72.551 25.4938L74.1226 26.7307C74.0968 26.7635 74.0679 26.7921 74.0294 26.8197C74.0084 26.8347 73.9759 26.8557 73.931 26.8763C73.8871 26.8964 73.8178 26.9225 73.7264 26.9359L73.4372 24.9569ZM72.5491 25.4963C71.7941 26.4616 71.0462 27.4321 70.2629 28.4457L71.8455 29.6686C72.631 28.6521 73.3742 27.6878 74.1245 26.7283L72.5491 25.4963ZM70.6865 29.9871C71.0096 30.1148 71.4626 30.3086 71.9041 30.4598L72.5521 28.5677C72.1687 28.4364 71.8215 28.2852 71.422 28.1272L70.6865 29.9871ZM71.9101 30.4618C72.2427 30.5734 72.5453 30.5031 72.6747 30.4657C72.8295 30.4211 73.039 30.3335 73.2219 30.171L71.8935 28.6758C71.9557 28.6206 72.0089 28.5911 72.0355 28.5776C72.0658 28.5623 72.0936 28.5518 72.1204 28.5441C72.1459 28.5367 72.1872 28.5271 72.2437 28.5235C72.2922 28.5205 72.405 28.5183 72.5462 28.5657L71.9101 30.4618ZM73.2223 30.1707C74.483 29.0495 75.5832 27.7812 76.4325 26.3101L74.7005 25.3101C73.9776 26.5621 73.026 27.6688 71.8932 28.6761L73.2223 30.1707ZM76.419 26.3328C76.5535 26.1135 76.5733 25.8998 76.571 25.772C76.5689 25.6538 76.5467 25.5604 76.5401 25.5326C76.5359 25.5148 76.5211 25.4581 76.5273 25.4823C76.5277 25.4838 76.5329 25.5039 76.5377 25.533L74.5636 25.8539C74.5727 25.9101 74.5839 25.9555 74.5903 25.9803C74.5931 25.9911 74.5965 26.0037 74.5967 26.0045C74.5978 26.0089 74.5963 26.0032 74.5942 25.9943C74.5922 25.986 74.5732 25.9102 74.5714 25.8075C74.5694 25.6953 74.5865 25.4952 74.714 25.2873L76.419 26.3328ZM75.4264 24.7012C74.7809 24.782 74.1074 24.8612 73.4418 24.9565L73.7253 26.9363C74.3676 26.8443 75.009 26.7691 75.6749 26.6857L75.4264 24.7012ZM73.5836 24.9464H73.5818V26.9464H73.5836V24.9464ZM86.3803 25.7181C86.5195 25.5078 86.5793 25.2833 86.601 25.1041C86.6228 24.9243 86.6175 24.6961 86.5369 24.4638L84.6475 25.1198C84.6056 24.9991 84.6101 24.9089 84.6155 24.8638C84.6209 24.8192 84.6385 24.7262 84.7125 24.6144L86.3803 25.7181ZM86.5393 24.4707C86.1547 23.3362 85.7559 22.2049 85.3267 20.9806L83.4394 21.6423C83.8704 22.8718 84.2647 23.9906 84.6451 25.1128L86.5393 24.4707ZM83.7661 20.5244C83.2686 20.9144 82.8294 21.2437 82.4293 21.5903L83.7387 23.102C84.0895 22.7982 84.4541 22.5264 85 22.0985L83.7661 20.5244ZM82.4319 21.588C82.2363 21.7563 82.1454 21.9539 82.1032 22.0706C82.0569 22.1985 82.0366 22.3197 82.0283 22.4186C82.0138 22.5909 82.0241 22.8454 82.1375 23.0963L83.96 22.2727C84.0016 22.3648 84.0141 22.438 84.0186 22.473C84.0238 22.5133 84.0242 22.5503 84.0212 22.5862C84.0184 22.6196 84.0105 22.6775 83.9839 22.751C83.9613 22.8134 83.8973 22.9656 83.7361 23.1043L82.4319 21.588ZM82.1415 23.1051C82.6921 24.2929 83.2575 25.4754 83.8391 26.7017L85.6462 25.8447C85.0609 24.6107 84.5018 23.4412 83.956 22.264L82.1415 23.1051ZM85.5484 26.8655C85.7907 26.5358 86.106 26.1288 86.3769 25.7222L84.7123 24.6135C84.4755 24.969 84.2233 25.2913 83.9369 25.681L85.5484 26.8655ZM86.2258 25.9L86.2275 25.8984L84.8652 24.4341L84.8634 24.4357L86.2258 25.9ZM71.5358 25.1423C69.9075 24.9068 68.4056 24.691 66.8014 24.459L66.5151 26.4384C68.0907 26.6663 69.6522 26.8907 71.2495 27.1217L71.5358 25.1423ZM65.8311 26.0106C66.6554 27.2242 67.6997 28.1951 68.9811 29.0435L70.0851 27.3758C68.98 26.6442 68.1383 25.8479 67.4855 24.8868L65.8311 26.0106ZM70.2779 28.8769C70.9184 28.1621 71.5176 27.4914 72.1376 26.7991L70.6477 25.4648C70.0233 26.1621 69.431 26.825 68.7883 27.5424L70.2779 28.8769ZM63.942 17.7316C63.8989 18.0807 63.8449 18.503 63.7956 18.9031L65.7807 19.1473C65.8337 18.7163 65.8784 18.3699 65.9269 17.9767L63.942 17.7316ZM64.6247 20.0117C66.6849 20.353 68.6524 20.2979 70.7293 19.9311L70.3815 17.9616C68.496 18.2945 66.7586 18.3379 64.9516 18.0386L64.6247 20.0117ZM70.9453 18.0255C69.2754 17.3183 66.5744 16.7931 64.8994 16.8548L64.973 18.8535C66.3297 18.8035 68.7403 19.2637 70.1655 19.8672L70.9453 18.0255ZM64.9362 16.8541H64.9345V18.8541H64.9362V16.8541ZM80.2725 25.603C80.156 25.913 80.1395 26.3059 80.2824 26.6568L82.1348 25.9028C82.1745 26.0003 82.1803 26.0777 82.1802 26.1223C82.18 26.1686 82.1731 26.2307 82.1447 26.3062L80.2725 25.603ZM80.2857 26.6648C80.5825 27.3762 80.8965 28.0837 81.2246 28.8349L83.0574 28.0345C82.7228 27.2681 82.4199 26.586 82.1315 25.8948L80.2857 26.6648ZM82.7069 29.2592C82.9921 29.0634 83.3759 28.8186 83.7063 28.5584L82.4688 26.9872C82.2069 27.1934 81.9457 27.3559 81.5751 27.6102L82.7069 29.2592ZM83.7116 28.5541C83.9281 28.3812 84.0552 28.1585 84.123 27.9922C84.1767 27.8605 84.2998 27.5089 84.1633 27.1133L82.2726 27.7654C82.2128 27.592 82.2236 27.4508 82.2318 27.3894C82.2411 27.3189 82.2585 27.2679 82.271 27.2372C82.2843 27.2047 82.3013 27.1721 82.3245 27.1383C82.3453 27.1081 82.3885 27.0513 82.4635 26.9914L83.7116 28.5541ZM84.1677 27.1264C83.802 26.0162 83.4136 24.9088 83.0391 23.8195L81.1478 24.4698C81.5276 25.5747 81.9078 26.6584 82.2682 27.7523L84.1677 27.1264ZM82.0115 23.148C81.9815 23.1505 81.9516 23.1529 81.9216 23.1554C81.8916 23.1579 81.8617 23.1603 81.8317 23.1628L81.9956 25.1561C82.0255 25.1536 82.0555 25.1511 82.0855 25.1487C82.1154 25.1462 82.1454 25.1437 82.1754 25.1413L82.0115 23.148ZM80.9836 23.792C80.7529 24.3759 80.502 24.9915 80.2724 25.6032L82.1448 26.306C82.3665 25.7155 82.602 25.1386 82.8437 24.5269L80.9836 23.792ZM79.5831 15.5545C80.0184 15.2089 80.3748 14.7561 80.5106 14.1798C80.6474 13.5988 80.5264 13.0351 80.2772 12.536L78.4879 13.4294C78.5853 13.6245 78.5674 13.706 78.5638 13.7212C78.5592 13.7411 78.5317 13.8355 78.3395 13.9881L79.5831 15.5545ZM80.2751 12.5318C79.5786 11.1529 78.6828 9.89736 77.5969 8.76816L76.1553 10.1545C77.107 11.144 77.8856 12.2371 78.4899 13.4335L80.2751 12.5318ZM77.5954 8.76661C77.2836 8.44376 76.8913 8.29414 76.5689 8.21845L76.1117 10.1655C76.1391 10.1719 76.1602 10.1782 76.1758 10.1835C76.1914 10.1889 76.2 10.1928 76.203 10.1943C76.2092 10.1974 76.1875 10.1878 76.1568 10.156L77.5954 8.76661ZM75.4968 9.72907C76.58 11.4303 77.3994 13.1702 77.8538 15.0403L79.7973 14.568C79.2787 12.4339 78.3532 10.4914 77.1838 8.65488L75.4968 9.72907ZM79.0561 15.7772C79.086 15.7701 79.0978 15.7681 79.1217 15.7634C79.1238 15.763 79.1797 15.7527 79.2406 15.7343C79.3187 15.7106 79.4514 15.6611 79.5871 15.5527L78.339 13.9899C78.4685 13.8865 78.5939 13.8404 78.6613 13.82C78.6918 13.8108 78.7153 13.8054 78.724 13.8035C78.7331 13.8015 78.739 13.8003 78.7356 13.801C78.7199 13.8041 78.6691 13.8135 78.595 13.8311L79.0561 15.7772ZM78.963 13.7713H78.9613V15.7713H78.963V13.7713ZM86.3556 17.5533C85.7932 18.2477 85.2766 18.8752 84.7809 19.5105L86.3577 20.7408C86.8385 20.1245 87.3336 19.5235 87.9098 18.812L86.3556 17.5533ZM84.781 19.5103C84.5984 19.7442 84.562 19.9894 84.554 20.1175C84.5454 20.2557 84.5629 20.3732 84.5782 20.4494C84.6091 20.6025 84.6626 20.7383 84.7097 20.8355L86.5099 19.9643C86.5165 19.9778 86.5286 20.0035 86.5387 20.0539C86.5438 20.0789 86.556 20.1468 86.5501 20.2416C86.5449 20.3263 86.519 20.5341 86.3576 20.7409L84.781 19.5103ZM84.7075 20.831C85.0747 21.5996 85.4509 22.3668 85.8429 23.1694L87.64 22.2917C87.2459 21.4847 86.8746 20.7276 86.5121 19.9688L84.7075 20.831ZM87.6864 23.0576C88.2526 21.4218 88.3777 19.7958 88.1223 18.0373L86.1431 18.3247C86.3566 19.7952 86.249 21.096 85.7964 22.4034L87.6864 23.0576ZM86.1327 18.181V18.1826H88.1327V18.181H86.1327ZM82.5077 9.86389C81.5345 9.44332 80.6248 9.05069 79.7153 8.65816L78.9228 10.4944C79.8323 10.887 80.7416 11.2794 81.7144 11.6998L82.5077 9.86389ZM78.4379 9.10348C78.4319 9.11468 78.4251 9.12703 78.4154 9.1447C78.4066 9.1607 78.3949 9.18202 78.3833 9.20367L80.1456 10.1493C80.1516 10.1381 80.1584 10.1258 80.1681 10.1081C80.1769 10.0921 80.1886 10.0708 80.2002 10.0491L78.4379 9.10348ZM78.4185 10.2097C78.9937 11.1223 79.5637 12.0309 80.1914 13.0278L81.8838 11.962C81.2601 10.9716 80.6844 10.0538 80.1104 9.14323L78.4185 10.2097ZM81.8849 13.026C82.2465 12.4491 82.5694 11.9329 82.9587 11.3107L81.2633 10.2497C80.8737 10.8725 80.5514 11.3877 80.1903 11.9638L81.8849 13.026ZM81.111 10.7802V10.7818H83.111V10.7802H81.111ZM73.7589 10.917C73.4645 10.3849 73.1923 9.89403 72.8774 9.32519L71.1276 10.2939C71.4437 10.8649 71.7144 11.3529 72.0088 11.8851L73.7589 10.917ZM71.5625 8.91154C70.749 9.31013 69.9776 9.68614 69.216 10.0598L70.097 11.8553C70.8618 11.4801 71.6203 11.1104 72.4425 10.7075L71.5625 8.91154ZM68.7408 11.3596C68.7421 11.3623 68.7442 11.3675 68.7526 11.3883C68.7592 11.4044 68.772 11.4363 68.7867 11.4696L70.6179 10.6656C70.6167 10.6629 70.6146 10.6577 70.6061 10.6369C70.5996 10.6208 70.5868 10.5889 70.5721 10.5556L68.7408 11.3596ZM69.5988 12.0623C70.6245 12.169 71.6483 12.2772 72.7797 12.3956L72.9879 10.4065C71.8596 10.2884 70.8318 10.1798 69.8058 10.073L69.5988 12.0623ZM81.5646 28.8933C81.4065 28.4531 81.2719 28.0768 81.101 27.6008L79.2187 28.2765C79.3862 28.7432 79.5266 29.1356 79.6822 29.5692L81.5646 28.8933ZM79.354 27.3465C78.8862 27.9831 78.48 28.5369 78.0715 29.0915L79.6818 30.2776C80.0912 29.7219 80.4993 29.1654 80.9657 28.5308L79.354 27.3465ZM77.9578 30.079C77.97 30.1075 77.9822 30.1341 77.9889 30.1488C77.9972 30.167 77.9999 30.1732 78.0018 30.1776L79.8396 29.3886C79.8274 29.3602 79.8152 29.3335 79.8085 29.3189C79.8002 29.3007 79.7975 29.2945 79.7956 29.2901L77.9578 30.079ZM79.2286 30.7345C79.7767 30.5572 80.3255 30.3796 80.9325 30.1823L80.3143 28.2802C79.7087 28.4771 79.1611 28.6543 78.6129 28.8317L79.2286 30.7345Z" fill="#FFBB4D" mask="url(#path-4-inside-1_28_224)"/>
</svg>
