<svg width="88" height="40" viewBox="0 0 88 40" fill="none" xmlns="http://www.w3.org/2000/svg">
<rect width="88" height="40" rx="20" fill="#FFBB4D"/>
<path d="M15.394 27C15.118 27 14.878 26.898 14.674 26.694C14.47 26.49 14.368 26.25 14.368 25.974V14.886C14.368 14.61 14.47 14.37 14.674 14.166C14.878 13.962 15.118 13.86 15.394 13.86H16.51C16.786 13.86 17.02 13.962 17.212 14.166C17.416 14.37 17.518 14.61 17.518 14.886V24.318C17.518 24.414 17.572 24.462 17.68 24.462H22.054C22.33 24.462 22.57 24.564 22.774 24.768C22.978 24.972 23.08 25.212 23.08 25.488V25.974C23.08 26.25 22.978 26.49 22.774 26.694C22.57 26.898 22.33 27 22.054 27H15.394ZM32.8454 20.43C32.8454 17.61 31.8374 16.2 29.8214 16.2C27.8054 16.2 26.7974 17.61 26.7974 20.43C26.7974 23.25 27.8054 24.66 29.8214 24.66C31.8374 24.66 32.8454 23.25 32.8454 20.43ZM34.3214 25.398C33.2174 26.586 31.7174 27.18 29.8214 27.18C27.9254 27.18 26.4254 26.586 25.3214 25.398C24.2174 24.198 23.6654 22.542 23.6654 20.43C23.6654 18.318 24.2174 16.668 25.3214 15.48C26.4254 14.28 27.9254 13.68 29.8214 13.68C31.7174 13.68 33.2174 14.28 34.3214 15.48C35.4254 16.668 35.9774 18.318 35.9774 20.43C35.9774 22.542 35.4254 24.198 34.3214 25.398ZM43.9309 27.18C41.9149 27.18 40.3009 26.586 39.0889 25.398C37.8769 24.198 37.2709 22.542 37.2709 20.43C37.2709 18.306 37.8649 16.65 39.0529 15.462C40.2409 14.274 41.9089 13.68 44.0569 13.68C44.9449 13.68 45.8029 13.752 46.6309 13.896C46.9189 13.944 47.1529 14.088 47.3329 14.328C47.5249 14.556 47.6209 14.82 47.6209 15.12V15.606C47.6209 15.858 47.5189 16.062 47.3149 16.218C47.1109 16.374 46.8829 16.422 46.6309 16.362C45.8869 16.194 45.1489 16.11 44.4169 16.11C41.7289 16.11 40.3849 17.55 40.3849 20.43C40.3849 21.87 40.7029 22.95 41.3389 23.67C41.9869 24.39 42.9109 24.75 44.1109 24.75C44.4829 24.75 44.8609 24.702 45.2449 24.606C45.3529 24.582 45.4069 24.516 45.4069 24.408V21.474C45.4069 21.378 45.3529 21.33 45.2449 21.33H43.5709C43.2949 21.33 43.0549 21.228 42.8509 21.024C42.6469 20.82 42.5449 20.58 42.5449 20.304V20.034C42.5449 19.758 42.6469 19.518 42.8509 19.314C43.0549 19.11 43.2949 19.008 43.5709 19.008H47.2969C47.5729 19.008 47.8069 19.11 47.9989 19.314C48.2029 19.518 48.3049 19.758 48.3049 20.034V25.416C48.3049 25.728 48.2149 26.01 48.0349 26.262C47.8549 26.502 47.6209 26.664 47.3329 26.748C46.2529 27.036 45.1189 27.18 43.9309 27.18ZM57.4644 27C57.1884 27 56.9484 26.898 56.7444 26.694C56.5524 26.49 56.4564 26.25 56.4564 25.974V14.886C56.4564 14.61 56.5524 14.37 56.7444 14.166C56.9484 13.962 57.1884 13.86 57.4644 13.86H58.7964C59.0724 13.86 59.3064 13.962 59.4984 14.166C59.7024 14.37 59.8044 14.61 59.8044 14.886V25.974C59.8044 26.25 59.7024 26.49 59.4984 26.694C59.3064 26.898 59.0724 27 58.7964 27H57.4644ZM63.8393 27C63.5633 27 63.3233 26.898 63.1193 26.694C62.9153 26.49 62.8133 26.25 62.8133 25.974V14.886C62.8133 14.61 62.9153 14.37 63.1193 14.166C63.3233 13.962 63.5633 13.86 63.8393 13.86H64.7213C65.4053 13.86 65.9033 14.16 66.2153 14.76L69.9953 21.906C69.9953 21.918 70.0013 21.924 70.0133 21.924C70.0253 21.924 70.0313 21.918 70.0313 21.906V14.886C70.0313 14.61 70.1333 14.37 70.3373 14.166C70.5413 13.962 70.7813 13.86 71.0573 13.86H71.9393C72.2153 13.86 72.4553 13.962 72.6593 14.166C72.8633 14.37 72.9653 14.61 72.9653 14.886V25.974C72.9653 26.25 72.8633 26.49 72.6593 26.694C72.4553 26.898 72.2153 27 71.9393 27H71.0573C70.3733 27 69.8753 26.7 69.5633 26.1L65.7833 18.954C65.7833 18.942 65.7773 18.936 65.7653 18.936C65.7533 18.936 65.7473 18.942 65.7473 18.954V25.974C65.7473 26.25 65.6453 26.49 65.4413 26.694C65.2373 26.898 64.9973 27 64.7213 27H63.8393Z" fill="white"/>
</svg>
